<svg width="100" height="100" fill="none" xmlns="http://www.w3.org/2000/svg"><style>path { fill: rgba(0, 0, 0, 0.9); }@media (prefers-color-scheme: dark) {path { fill: rgba(255, 255, 255, 0.9); }}</style><path fill-rule="evenodd" clip-rule="evenodd" d="M6.616 17.104C4 22.238 4 28.96 4 42.4v15.2c0 13.441 0 20.162 2.616 25.296a24 24 0 0010.488 10.488C22.238 96 28.96 96 42.4 96h15.2c13.441 0 20.162 0 25.296-2.616a24 24 0 0010.488-10.488C96 77.762 96 71.04 96 57.6V42.4c0-13.441 0-20.162-2.616-25.296A24 24 0 0082.896 6.616C77.762 4 71.04 4 57.6 4H42.4C28.959 4 22.238 4 17.104 6.616A24 24 0 006.616 17.104zM38.19 62.908C38.191 69.832 34.22 74 27.003 74 22.237 74 18 71.31 18 65.53l.53-.538h1.853l.53.537c.198 2.353 2.118 4.169 4.435 4.169 2.185 0 3.443-1.816 3.443-4.706v-32.27c0-1.344-1.324-2.688-2.648-2.688h-2.119l-.53-.538v-2.958l.53-.538h18.934l.53.538v2.958l-.53.538h-2.119c-1.324 0-2.648 1.344-2.648 2.689v30.185zm28.45 10.15H47.708l-.53-.537v-2.958l.53-.538h2.119c1.324 0 2.648-1.344 2.648-2.689V32.723c0-1.345-1.325-2.69-2.648-2.69h-2.119l-.53-.537v-2.958l.53-.538h33.63l.662.672v2.017l-1.854 8.47-.53.538h-2.382l-.53-.537c-.53-4.706-2.582-7.126-5.958-7.126h-6.223c-1.324 0-2.648 1.344-2.648 2.689V48.52h7.547c1.324 0 2.648-1.412 2.648-2.69v-.806l.53-.538h2.912l.53.538V56.05l-.53.538H72.6l-.53-.538v-.806c0-1.345-1.324-2.69-2.648-2.69h-7.547v13.782c0 1.345 1.324 2.69 2.648 2.69h2.118l.53.537v2.958l-.53.538z" fill="#000"/></svg>
