<svg version="1.0" xmlns="http://www.w3.org/2000/svg" width="933.333" height="933.333" viewBox="0 0 700 700"><style>path { fill: rgba(0, 0, 0, 0.9); }@media (prefers-color-scheme: dark) {path { fill: rgba(255, 255, 255, 0.9); }}</style><path d="M217.9 28.4c-.2.2-7.1.6-15.4 1-8.2.3-16.6.8-18.5 1.1-1.9.2-6 .6-9 1-4.7.4-17.4 2.5-24.8 3.9-6.6 1.4-20.7 6.3-28.2 9.9-37.2 18-67.4 50.8-81.4 88.1-3.8 10.3-8 29.3-9.1 41.6-.4 4.1-.9 8.2-1 9.2-1.5 7.6-2 50.5-2 166.8 0 118.8.4 153.5 2 165.5.3 1.6.7 5.5 1 8.5.6 5.9.8 7.2 3.1 19.8 8 44.1 41.4 86.7 85 108.5 12.6 6.4 26.7 10.9 41.4 13.2 2.5.4 5.3.9 6.4 1.1 1 .2 4.1.6 7 .9 2.8.3 6.7.7 8.6 1 12.9 1.5 51.4 2 169 2 116.8 0 152.3-.4 164.5-2 1.7-.2 5.5-.7 8.5-1 3-.3 6.6-.7 8-1 15.6-2.6 21-3.8 30.5-7 6.6-2.3 16.1-6.3 19.7-8.5 1.8-1.1 4-2.3 4.8-2.7 3.4-1.5 15-9.6 22.5-15.6 18.9-15.2 37-38.7 46.1-59.8 3-7.2 7-19.3 8-24.3.2-1.2.6-3.2.9-4.6.2-1.4.7-4.1 1-6 .3-1.9.7-4.2 1-5 .2-.8.7-4.7 1-8.5.4-3.9.8-8.4 1.1-10 1.5-11.3 1.9-47.1 1.9-166 0-118.4-.4-154.2-2-166-.2-1.7-.7-5.5-1-8.5-3.9-38.7-17.8-68.9-44.4-96.3-14.6-15.1-35.3-29.4-51.6-35.8-2.7-1.1-5.9-2.4-7-2.9-7.2-3.3-31.8-8-49.5-9.5-4.1-.3-10.2-.9-13.5-1.2-6.3-.6-284-1.5-284.6-.9zm84.7 155.7c1.6 1.8 1.9 3.7 1.9 12.2 0 13.2-.3 13.6-12.2 13.8-9.7.2-14.3 1.6-18.6 5.7-6.6 6.3-6.2-2.7-6.3 119.7-.1 97.5-.5 123.2-1.9 125.6-.2.3-.7 2.1-1 3.9-1 5.9-5.6 16.2-10.2 23.2-9.9 15-25.5 24.4-46.9 28.3-9.6 1.7-30.7 1.3-37.9-.8-26.2-7.4-40.6-24.4-43.2-51-.8-8.1.8-9.7 9.5-9.7 5.4 0 7 .4 8.9 2.2 1.3 1.2 2.3 3.2 2.3 4.5 0 5.9 5.9 15.5 12.6 20.2 5.1 3.7 8.9 5.1 15.9 5.7 11.8 1 20.2-5.5 24.2-18.6 1.5-5 1.7-16.3 1.8-123 0-71.5-.3-119-.9-121.4-1.3-5.3-7.9-12.1-13.1-13.5-2.2-.5-7.4-.9-11.6-.9-10.7.2-11.2-.4-11.4-13.8-.1-8.9.2-10.8 1.7-12.4 1.8-2 3.5-2 68.2-2 66 0 66.3 0 68.2 2.1zm269.1.1c2 1.9 2.3 3.1 2.3 9.7 0 4.2-.5 9.6-1.1 12.1-.6 2.5-1.3 5.6-1.5 7-.3 1.4-.9 4.1-1.4 6-.5 1.9-1.1 4.8-1.4 6.5-2.4 13.7-8 35.2-9.5 36.7-1.4 1.2-3.8 1.7-9.9 1.7-10.3.1-11.6-1-13.3-10.5-3.6-20.8-11.3-33.2-24.9-39.8l-6.5-3.1-27.5-.2c-24.5-.1-27.9 0-31.5 1.6-5.3 2.4-7.8 4.7-10.3 9.7-2.1 4.1-2.1 5.2-2.2 61.1v56.9l28.2-.1c17.5-.1 29.3-.6 30.8-1.2 6.9-3 12-10.6 12.4-18.3.3-7.9 1.7-8.7 14.1-8.6 8.3.1 10.9.5 12.2 1.8 1.4 1.5 1.6 5.7 1.6 40.2 0 46.5 1.3 42.6-13.9 42.6-8 0-10.6-.3-11.8-1.6-.9-.8-1.6-1.8-1.7-2.2 0-.4-.2-2.8-.4-5.4-.4-5.3-2.2-9.2-5.9-13-5.6-5.5-7.3-5.8-34.3-5.9h-28.1l-3.2.1v50c.1 48.6.1 50.2 2.1 53.8 4.8 8.7 9.8 11.2 22.2 11.2 12.1 0 12.7.5 12.8 12.1.1 12 .1 12.3-1.9 14.5-1.8 1.8-3.8 1.9-68 1.8-60.9 0-66.3-.2-68-1.7-1.6-1.5-1.9-3.2-1.9-12.2 0-14 .5-14.5 12.8-14.5 6.1 0 10.2-.5 12.3-1.5 5-2.4 9.8-7.9 11-12.8.8-3 1.1-39.3 1-123.9V225.3l-2.8-4.7c-1.5-2.5-4.5-5.8-6.7-7.3-3.6-2.4-5.2-2.7-14.2-3-13.4-.4-13.6-.7-13.4-14.6.2-7.5.6-10.7 1.7-11.9 1.4-1.6 10.1-1.7 119.4-1.8h118l2.3 2.2z"/></svg>
